<?xml version="1.0" encoding="UTF-8" standalone="no"?>
<!-- Created with Inkscape (http://www.inkscape.org/) -->

<svg
   width="541.05774"
   height="200.00002"
   viewBox="0 0 143.15486 52.916669"
   version="1.1"
   id="svg5"
   inkscape:version="1.1.1 (c3084ef, 2021-09-22)"
   sodipodi:docname="pbest-logo.svg"
   xmlns:inkscape="http://www.inkscape.org/namespaces/inkscape"
   xmlns:sodipodi="http://sodipodi.sourceforge.net/DTD/sodipodi-0.dtd"
   xmlns="http://www.w3.org/2000/svg"
   xmlns:svg="http://www.w3.org/2000/svg">
  <sodipodi:namedview
     id="namedview7"
     pagecolor="#505050"
     bordercolor="#ffffff"
     borderopacity="1"
     inkscape:pageshadow="0"
     inkscape:pageopacity="0"
     inkscape:pagecheckerboard="1"
     inkscape:document-units="mm"
     showgrid="false"
     inkscape:zoom="1.3883617"
     inkscape:cx="248.49432"
     inkscape:cy="156.65946"
     inkscape:window-width="1419"
     inkscape:window-height="773"
     inkscape:window-x="0"
     inkscape:window-y="25"
     inkscape:window-maximized="0"
     inkscape:current-layer="layer4"
     showguides="true"
     inkscape:guide-bbox="true"
     fit-margin-top="0"
     units="px"
     fit-margin-left="0"
     fit-margin-right="0"
     fit-margin-bottom="0">
    <sodipodi:guide
       position="57.933988,31.381999"
       orientation="1,0"
       id="guide34524" />
    <sodipodi:guide
       position="137.02151,22.425096"
       orientation="1,0"
       id="guide34526" />
    <sodipodi:guide
       position="24.964976,7.7510267"
       orientation="0,-1"
       id="guide49798" />
    <sodipodi:guide
       position="34.493593,45.484348"
       orientation="0,-1"
       id="guide50372" />
  </sodipodi:namedview>
  <defs
     id="defs2">
    <marker
       style="overflow:visible"
       id="Arrow1Lstart"
       refX="0"
       refY="0"
       orient="auto"
       inkscape:stockid="Arrow1Lstart"
       inkscape:isstock="true">
      <path
         transform="matrix(0.8,0,0,0.8,10,0)"
         style="fill:context-stroke;fill-rule:evenodd;stroke:context-stroke;stroke-width:1pt"
         d="M 0,0 5,-5 -12.5,0 5,5 Z"
         id="path1374" />
    </marker>
  </defs>
  <g
     inkscape:groupmode="layer"
     id="layer2"
     inkscape:label="background"
     style="display:inline"
     sodipodi:insensitive="true">
    <ellipse
       style="fill:#f03b78;fill-opacity:1;stroke:none;stroke-width:2.64166;stroke-miterlimit:4;stroke-dasharray:none;stroke-opacity:1"
       id="ellipse5687"
       cx="26.458332"
       cy="26.458334"
       rx="25.137503"
       ry="25.137505" />
  </g>
  <g
     inkscape:groupmode="layer"
     id="layer3"
     inkscape:label="mountain"
     sodipodi:insensitive="true">
    <path
       id="path1778"
       style="fill:#c9c41c;fill-opacity:1;stroke:none;stroke-width:10;stroke-miterlimit:4;stroke-dasharray:none;stroke-opacity:1"
       inkscape:transform-center-x="-0.067377469"
       inkscape:transform-center-y="-3.5463457"
       d="M 124.82031,43.375 76.115234,90.044922 68.171875,97.65625 56.533203,77.923828 33.318359,119.01758 14.669922,152.02539 199.11328,112.85742 174.42188,89.763672 Z"
       transform="scale(0.26458333)" />
    <path
       id="path5927"
       style="fill:none;stroke:#000000;stroke-width:10;stroke-linecap:butt;stroke-linejoin:miter;stroke-miterlimit:4;stroke-dasharray:none;stroke-opacity:1"
       d="M 124.82031,43.375 68.171875,97.65625 56.533203,77.923828 18.128906,145.90039 l 2.998047,4.75391 171.392577,-36.39649 0.69141,-6.91992 z"
       transform="scale(0.26458333)" />
    <text
       xml:space="preserve"
       style="font-style:normal;font-weight:normal;font-size:10.5833px;line-height:1.25;font-family:sans-serif;fill:#000000;fill-opacity:1;stroke:none;stroke-width:0.264583"
       x="42.116486"
       y="62.126575"
       id="text7388"><tspan
         sodipodi:role="line"
         id="tspan7386"
         style="stroke-width:0.264583"
         x="42.116486"
         y="62.126575" /></text>
  </g>
  <g
     inkscape:label="Exterior"
     inkscape:groupmode="layer"
     id="layer1"
     sodipodi:insensitive="true">
    <ellipse
       style="fill:#ffffff;fill-opacity:0;stroke:#000000;stroke-width:2.64166;stroke-miterlimit:4;stroke-dasharray:none;stroke-opacity:1"
       id="path848"
       cx="26.458332"
       cy="26.458334"
       rx="25.137503"
       ry="25.137505" />
    <path
       id="path883"
       style="fill:none;stroke:#000000;stroke-width:10;stroke-linecap:butt;stroke-linejoin:miter;stroke-miterlimit:4;stroke-dasharray:none;stroke-opacity:1"
       d="M 124.82031,43.375 68.171875,97.65625 56.533203,77.923828 18.128906,145.90039 l 2.998047,4.75391 171.392577,-36.39649 0.69141,-6.91992 z"
       transform="scale(0.26458333)" />
  </g>
  <g
     inkscape:groupmode="layer"
     id="layer4"
     inkscape:label="letters">
    <g
       aria-label="pbest"
       transform="scale(0.97697867,1.0235638)"
       id="text994"
       style="font-size:27.9965px;line-height:1.25;font-family:Audiowide;-inkscape-font-specification:Audiowide;fill:#c9c41c;stroke-width:0.699914">
      <path
         d="m 75.785024,23.587681 q 0,0.915901 -0.232393,1.65409 -0.232393,0.724519 -0.615157,1.284996 -0.382765,0.546806 -0.888561,0.943241 -0.505796,0.382765 -1.066273,0.628828 -0.546807,0.246063 -1.107283,0.369094 -0.560477,0.109361 -1.066273,0.109361 h -6.411308 v -3.554243 h 6.411308 q 0.710848,0 1.066273,-0.369094 0.355424,-0.369095 0.355424,-1.066273 v -4.784558 q 0,-0.738189 -0.369095,-1.093613 -0.355424,-0.355425 -1.052602,-0.355425 h -6.383968 q -0.724519,0 -1.093613,0.369095 -0.369095,0.355424 -0.369095,1.052602 V 33.197808 H 59.408165 V 18.775782 q 0,-0.915901 0.232393,-1.640419 0.232393,-0.724519 0.615157,-1.271326 0.396435,-0.560477 0.902231,-0.943241 0.505796,-0.396435 1.052603,-0.642498 0.560477,-0.246063 1.120954,-0.355424 0.574147,-0.123032 1.066273,-0.123032 h 6.411308 q 0.915901,0 1.640419,0.232393 0.724519,0.232393 1.271326,0.615157 0.560477,0.382765 0.943241,0.888561 0.396435,0.505796 0.642498,1.066273 0.246063,0.546807 0.355425,1.107284 0.123031,0.560476 0.123031,1.066272 z"
         style="fill:#000000"
         id="path51890" />
      <path
         d="m 95.141979,23.587681 q 0,0.505796 -0.123032,1.066273 -0.109361,0.560477 -0.355424,1.120953 -0.246063,0.546807 -0.642498,1.052603 -0.382765,0.505796 -0.943241,0.902231 -0.546807,0.382765 -1.271326,0.615158 -0.724519,0.232392 -1.64042,0.232392 H 83.75473 q -0.505796,0 -1.066273,-0.109361 Q 82.127981,28.344899 81.567504,28.098836 81.020697,27.852773 80.514901,27.470008 80.009105,27.073573 79.61267,26.526767 79.229905,25.96629 78.997512,25.241771 78.76512,24.503582 78.76512,23.587681 V 7.5525761 h 3.554243 V 23.587681 q 0,0.656168 0.410105,1.052603 0.410105,0.382764 1.025262,0.382764 h 6.411308 q 0.669838,0 1.038933,-0.396434 0.382764,-0.396435 0.382764,-1.038933 v -4.811899 q 0,-0.669838 -0.396434,-1.038932 -0.396435,-0.382765 -1.025263,-0.382765 H 83.75473 v -3.554243 h 6.411308 q 0.505796,0 1.066273,0.123032 0.560477,0.109361 1.107284,0.355424 0.560476,0.246063 1.066272,0.642498 0.505797,0.382764 0.888561,0.943241 0.382765,0.546807 0.615158,1.271326 0.232393,0.724518 0.232393,1.640419 z"
         id="path51892" />
      <path
         d="m 114.1025,18.693761 q 0,0.738189 -0.25973,1.59941 -0.25974,0.84755 -0.84756,1.585739 -0.57414,0.724519 -1.51738,1.216645 -0.92957,0.492126 -2.26925,0.492126 h -6.41131 V 20.21115 h 6.41131 q 0.72452,0 1.12095,-0.437445 0.39644,-0.451116 0.39644,-1.107284 0,-0.697178 -0.45112,-1.093613 -0.43744,-0.396435 -1.06627,-0.396435 h -6.41131 q -0.72452,0 -1.12095,0.451116 -0.39644,0.437445 -0.39644,1.093613 v 4.96227 q 0,0.710849 0.43745,1.107284 0.45111,0.396434 1.10728,0.396434 h 6.38397 v 3.390201 h -6.41131 q -0.73819,0 -1.59941,-0.259733 -0.84755,-0.259733 -1.585738,-0.83388 -0.724518,-0.587817 -1.216644,-1.517388 -0.492126,-0.943242 -0.492126,-2.282918 v -4.989611 q 0,-0.738189 0.259733,-1.585739 0.259733,-0.86122 0.83388,-1.585739 0.587817,-0.738189 1.517385,-1.230315 0.94324,-0.492126 2.28292,-0.492126 h 6.41131 q 0.73819,0 1.58574,0.259733 0.86122,0.259733 1.58574,0.84755 0.73819,0.574147 1.23031,1.517389 0.49213,0.929571 0.49213,2.269247 z"
         id="path51894" />
      <path
         d="m 130.80744,23.587681 q 0,0.915901 -0.23239,1.65409 -0.2324,0.724519 -0.61516,1.284996 -0.38277,0.546806 -0.88856,0.943241 -0.5058,0.382765 -1.06628,0.628828 -0.5468,0.246063 -1.12095,0.369094 -0.56048,0.109361 -1.06627,0.109361 h -9.6238 v -3.554243 h 9.59646 q 0.72452,0 1.09361,-0.369094 0.3691,-0.369095 0.3691,-1.066273 -0.0684,-1.421697 -1.43537,-1.421697 h -5.50908 q -1.17563,0 -1.99584,-0.410105 -0.82021,-0.410105 -1.33968,-1.025263 -0.5058,-0.615157 -0.73819,-1.326006 -0.21872,-0.710849 -0.21872,-1.326006 0,-1.189304 0.42377,-1.995844 0.42378,-0.82021 1.06628,-1.326006 0.64249,-0.505797 1.39435,-0.724519 0.75186,-0.232393 1.40803,-0.232393 h 8.73524 v 3.554243 h -8.7079 q -0.2734,0 -0.43744,0.06835 -0.15038,0.05468 -0.2324,0.164042 -0.0684,0.09569 -0.082,0.218723 -0.0137,0.109361 -0.0137,0.218722 0.0137,0.218723 0.082,0.341754 0.0683,0.123032 0.16405,0.177713 0.10936,0.05468 0.23239,0.06835 0.1367,0 0.25973,0 h 5.50908 q 1.36701,0 2.32393,0.492126 0.95691,0.492126 1.54472,1.243986 0.58782,0.738189 0.84756,1.613079 0.2734,0.874891 0.2734,1.62675 z"
         id="path51896" />
      <path
         d="m 146.52813,17.354085 h -6.20625 v 11.223206 h -3.59526 V 17.354085 h -4.62051 v -3.554243 h 4.62051 V 8.9742734 h 3.59526 v 4.8255686 h 6.20625 z"
         id="path51898" />
    </g>
    <g
       aria-label="CONSULTING"
       id="text33356"
       style="font-size:10.9457px;line-height:1.25;stroke-width:0.273643">
      <path
         d="m 65.008385,45.232346 h -5.013216 q -0.192405,0 -0.416877,-0.04276 -0.219128,-0.0481 -0.438256,-0.144304 -0.213783,-0.0962 -0.411532,-0.24585 -0.19775,-0.154993 -0.352743,-0.368776 -0.149648,-0.219128 -0.240506,-0.502391 -0.09086,-0.288607 -0.09086,-0.646694 V 39.51899 q 0,-0.192405 0.04276,-0.411533 0.0481,-0.224472 0.144304,-0.438256 0.0962,-0.219127 0.251195,-0.416877 0.154993,-0.197749 0.368776,-0.347397 0.219128,-0.154993 0.502391,-0.245851 0.283262,-0.09086 0.641349,-0.09086 h 5.013216 v 1.389591 h -5.013216 q -0.272573,0 -0.416877,0.144303 -0.144304,0.144304 -0.144304,0.427567 v 3.751895 q 0,0.267229 0.144304,0.416877 0.149648,0.144304 0.416877,0.144304 h 5.013216 z"
         style="font-family:Audiowide;-inkscape-font-specification:Audiowide"
         id="path51919" />
      <path
         d="m 74.270542,42.132489 q 0,0.70014 -0.240506,1.288044 -0.240506,0.587904 -0.668072,1.01547 -0.427567,0.427567 -1.01547,0.668073 -0.58256,0.235161 -1.27201,0.235161 h -1.881293 q -0.68945,0 -1.277354,-0.235161 -0.587904,-0.240506 -1.01547,-0.668073 -0.427567,-0.427566 -0.673417,-1.01547 -0.240506,-0.587904 -0.240506,-1.288044 v -1.464415 q 0,-0.694795 0.240506,-1.282699 0.24585,-0.593248 0.673417,-1.01547 0.427566,-0.427566 1.01547,-0.668073 0.587904,-0.240506 1.277354,-0.240506 h 1.881293 q 0.68945,0 1.27201,0.240506 0.587903,0.240507 1.01547,0.668073 0.427566,0.422222 0.668072,1.01547 0.240506,0.587904 0.240506,1.282699 z m -1.38959,-1.464415 q 0,-0.411532 -0.133615,-0.742896 -0.12827,-0.336709 -0.368776,-0.57187 -0.235161,-0.240506 -0.57187,-0.368776 -0.331364,-0.133615 -0.732207,-0.133615 h -1.881293 q -0.406188,0 -0.742896,0.133615 -0.331364,0.12827 -0.57187,0.368776 -0.240506,0.235161 -0.374121,0.57187 -0.12827,0.331364 -0.12827,0.742896 v 1.464415 q 0,0.411533 0.12827,0.748241 0.133615,0.331364 0.374121,0.57187 0.240506,0.235162 0.57187,0.368776 0.336708,0.12827 0.742896,0.12827 h 1.870603 q 0.406189,0 0.737552,-0.12827 0.336709,-0.133614 0.577215,-0.368776 0.240506,-0.240506 0.368776,-0.57187 0.133615,-0.336708 0.133615,-0.748241 z"
         style="font-family:Audiowide;-inkscape-font-specification:Audiowide"
         id="path51921" />
      <path
         d="m 83.313572,44.639097 q 0,0.149648 -0.05879,0.277918 -0.05345,0.12827 -0.149649,0.224473 -0.09086,0.09086 -0.219127,0.144303 -0.12827,0.05345 -0.272574,0.05345 -0.12827,0 -0.261884,-0.0481 -0.12827,-0.0481 -0.229817,-0.154993 L 77.04438,39.83432 v 5.398026 h -1.389591 v -7.07088 q 0,-0.213783 0.117581,-0.384809 0.122925,-0.176372 0.309985,-0.261885 0.19775,-0.08017 0.406188,-0.03741 0.208439,0.03741 0.358087,0.192405 l 5.077351,5.296479 v -5.398026 h 1.389591 z"
         style="font-family:Audiowide;-inkscape-font-specification:Audiowide"
         id="path51923" />
      <path
         d="m 92.297811,42.976933 q 0,0.411533 -0.106892,0.742896 -0.101547,0.32602 -0.272574,0.577215 -0.171026,0.251195 -0.400843,0.427566 -0.229817,0.176372 -0.475668,0.288608 -0.24585,0.112236 -0.50239,0.165682 -0.251195,0.05345 -0.475668,0.05345 h -5.360613 v -1.389591 h 5.360613 q 0.400844,0 0.619972,-0.235162 0.224472,-0.235161 0.224472,-0.63066 0,-0.192405 -0.05879,-0.352742 -0.05879,-0.160338 -0.171027,-0.277919 -0.106892,-0.11758 -0.267229,-0.181715 -0.154993,-0.06414 -0.347398,-0.06414 h -3.196059 q -0.336708,0 -0.726862,-0.117581 -0.390155,-0.122925 -0.726863,-0.390154 -0.331364,-0.267229 -0.555837,-0.70014 -0.219127,-0.432911 -0.219127,-1.058227 0,-0.625316 0.219127,-1.052882 0.224473,-0.432911 0.555837,-0.70014 0.336708,-0.272574 0.726863,-0.390155 0.390154,-0.122925 0.726862,-0.122925 h 4.729954 v 1.389591 h -4.729954 q -0.395498,0 -0.619971,0.240506 -0.219128,0.240506 -0.219128,0.636005 0,0.400843 0.219128,0.636005 0.224473,0.229817 0.619971,0.229817 h 3.196059 0.01069 q 0.224473,0.0053 0.475668,0.06414 0.251195,0.05345 0.497046,0.171026 0.251195,0.117581 0.475668,0.299297 0.224472,0.176371 0.395498,0.427566 0.176372,0.251195 0.277919,0.577215 0.101547,0.326019 0.101547,0.737552 z"
         style="font-family:Audiowide;-inkscape-font-specification:Audiowide"
         id="path51925" />
      <path
         d="m 100.97207,44.532206 q 0,0.149648 -0.0534,0.277918 -0.0534,0.12827 -0.14965,0.224472 -0.0962,0.09086 -0.22447,0.144304 -0.12827,0.05345 -0.27257,0.05345 h -3.131928 q -0.443601,0 -0.89789,-0.0962 -0.454289,-0.0962 -0.881856,-0.293952 -0.422221,-0.203094 -0.796342,-0.513079 -0.374121,-0.309986 -0.657383,-0.732208 -0.277918,-0.427566 -0.438256,-0.972713 -0.160337,-0.550492 -0.160337,-1.223909 v -3.832064 h 1.389591 v 3.832064 q 0,0.587904 0.160337,0.994092 0.165682,0.406188 0.416877,0.678761 0.251195,0.272574 0.550492,0.427567 0.299296,0.154993 0.566525,0.229817 0.272574,0.07482 0.475668,0.0962 0.208439,0.01603 0.272574,0.01603 h 2.442473 v -6.274537 h 1.389595 z"
         style="font-family:Audiowide;-inkscape-font-specification:Audiowide"
         id="path51927" />
      <path
         d="m 109.63028,45.232346 h -6.33867 q -0.14965,0 -0.27792,-0.05345 -0.12827,-0.05345 -0.22447,-0.144304 -0.0909,-0.0962 -0.1443,-0.224472 -0.0534,-0.12827 -0.0534,-0.277918 v -6.963988 h 1.38959 v 6.274537 h 5.64922 z"
         style="font-family:Audiowide;-inkscape-font-specification:Audiowide"
         id="path51929" />
      <path
         d="m 116.48738,38.957809 h -3.06244 v 6.274537 h -1.3896 v -6.274537 h -3.06778 v -1.389591 h 7.51982 z"
         style="font-family:Audiowide;-inkscape-font-specification:Audiowide"
         id="path51931" />
      <path
         d="m 118.91382,45.232346 h -1.38959 v -7.664128 h 1.38959 z"
         style="font-family:Audiowide;-inkscape-font-specification:Audiowide"
         id="path51933" />
      <path
         d="m 128.20804,44.639097 q 0,0.149648 -0.0588,0.277918 -0.0534,0.12827 -0.14964,0.224473 -0.0909,0.09086 -0.21913,0.144303 -0.12827,0.05345 -0.27258,0.05345 -0.12827,0 -0.26188,-0.0481 -0.12827,-0.0481 -0.22982,-0.154993 l -5.07735,-5.301823 v 5.398026 h -1.38959 v -7.07088 q 0,-0.213783 0.11758,-0.384809 0.12293,-0.176372 0.30999,-0.261885 0.19775,-0.08017 0.40619,-0.03741 0.20843,0.03741 0.35808,0.192405 l 5.07735,5.296479 v -5.398026 h 1.38959 z"
         style="font-family:Audiowide;-inkscape-font-specification:Audiowide"
         id="path51935" />
      <path
         d="m 137.39003,44.532206 q 0,0.149648 -0.0534,0.277918 -0.0534,0.12827 -0.14965,0.224472 -0.0908,0.09086 -0.21912,0.144304 -0.12827,0.05345 -0.27792,0.05345 h -5.01322 q -0.1924,0 -0.41687,-0.04276 -0.21913,-0.0481 -0.43826,-0.144304 -0.21378,-0.0962 -0.41153,-0.24585 -0.19775,-0.154993 -0.35275,-0.368776 -0.14964,-0.219128 -0.2405,-0.502391 -0.0909,-0.288607 -0.0909,-0.646694 V 39.51899 q 0,-0.192405 0.0428,-0.411533 0.0481,-0.224472 0.1443,-0.438256 0.0962,-0.219127 0.2512,-0.416877 0.15499,-0.197749 0.36877,-0.347397 0.21913,-0.154993 0.50239,-0.245851 0.28327,-0.09086 0.64135,-0.09086 h 5.64922 v 1.389591 h -5.64922 q -0.27257,0 -0.41687,0.144303 -0.14431,0.144304 -0.14431,0.427567 v 3.751895 q 0,0.267229 0.14431,0.416877 0.14964,0.144304 0.41687,0.144304 h 4.32377 v -1.742333 h -3.69845 v -1.40028 h 4.3879 q 0.14965,0 0.27792,0.05879 0.12827,0.05345 0.21912,0.149648 0.0962,0.0962 0.14965,0.224473 0.0534,0.122925 0.0534,0.267229 z"
         style="font-family:Audiowide;-inkscape-font-specification:Audiowide"
         id="path51937" />
    </g>
  </g>
</svg>
